<?xml version="1.0" encoding="utf-8"?>
<!-- Generator: Adobe Illustrator 17.0.0, SVG Export Plug-In . SVG Version: 6.00 Build 0)  -->
<!DOCTYPE svg PUBLIC "-//W3C//DTD SVG 1.1//EN" "http://www.w3.org/Graphics/SVG/1.1/DTD/svg11.dtd">
<svg version="1.1"
	 id="svg2" xmlns:svg="http://www.w3.org/2000/svg" xmlns:sodipodi="http://sodipodi.sourceforge.net/DTD/sodipodi-0.dtd" xmlns:inkscape="http://www.inkscape.org/namespaces/inkscape" sodipodi:docname="Account.svg" inkscape:version="1.4.3 (0d15f75, 2025-12-25)"
	 xmlns="http://www.w3.org/2000/svg" xmlns:xlink="http://www.w3.org/1999/xlink" x="0px" y="0px" width="24px" height="24px"
	 viewBox="0 0 24 24" enable-background="new 0 0 24 24" xml:space="preserve">
<sodipodi:namedview  id="namedview2" pagecolor="#ffffff" bordercolor="#000000" borderopacity="0.25" inkscape:zoom="33.625" inkscape:cx="11.98513" inkscape:cy="12" inkscape:window-maximized="1" inkscape:window-y="-8" inkscape:window-width="1920" inkscape:deskcolor="#d1d1d1" inkscape:current-layer="svg2" inkscape:pagecheckerboard="0" inkscape:window-x="-8" inkscape:pageopacity="0.0" inkscape:showpageshadow="2" inkscape:window-height="1009">
	</sodipodi:namedview>
<g id="g2">
	<path id="path1" fill="#9CA3AF" d="M20,6h-4V4c0-1.1-0.9-2-2-2H4C2.9,2,2,2.9,2,4v17c0,0.55,0.45,1,1,1h18c0.55,0,1-0.45,1-1V8
		C22,6.9,21.1,6,20,6 M20,20H4V4h10v3c0,0.55,0.45,1,1,1h5V20z"/>
	<path id="path2" fill="#9CA3AF" d="M10,6h2v2h-2V6z M6,6h2v2H6V6z M6,10h2v2H6V10z M10,10h2v2h-2V10z M16,10h2v2h-2V10z M10,14h2v2
		h-2V14z M6,14h2v2H6V14z M16,14h2v2h-2V14z"/>
</g>
</svg>
