<?xml version="1.0" encoding="UTF-8" standalone="no"?>
<svg
   class="ionicon"
   viewBox="0 0 512 512"
   version="1.1"
   id="svg1"
   sodipodi:docname="admin.svg"
   inkscape:version="1.4.3 (0d15f75, 2025-12-25)"
   xmlns:inkscape="http://www.inkscape.org/namespaces/inkscape"
   xmlns:sodipodi="http://sodipodi.sourceforge.net/DTD/sodipodi-0.dtd"
   xmlns="http://www.w3.org/2000/svg"
   xmlns:svg="http://www.w3.org/2000/svg">
  <defs
     id="defs1" />
  <sodipodi:namedview
     id="namedview1"
     pagecolor="#ffffff"
     bordercolor="#000000"
     borderopacity="0.25"
     inkscape:showpageshadow="2"
     inkscape:pageopacity="0.0"
     inkscape:pagecheckerboard="0"
     inkscape:deskcolor="#d1d1d1"
     inkscape:zoom="1.5761719"
     inkscape:cx="255.68277"
     inkscape:cy="256.63444"
     inkscape:window-width="1920"
     inkscape:window-height="1009"
     inkscape:window-x="-8"
     inkscape:window-y="-8"
     inkscape:window-maximized="1"
     inkscape:current-layer="svg1" />
  <path
     d="M393.87 190a32.1 32.1 0 01-45.25 0l-26.57-26.57a32.09 32.09 0 010-45.26L382.19 58a1 1 0 00-.3-1.64c-38.82-16.64-89.15-8.16-121.11 23.57-30.58 30.35-32.32 76-21.12 115.84a31.93 31.93 0 01-9.06 32.08L64 380a48.17 48.17 0 1068 68l153.86-167a31.93 31.93 0 0131.6-9.13c39.54 10.59 84.54 8.6 114.72-21.19 32.49-32 39.5-88.56 23.75-120.93a1 1 0 00-1.6-.26z"
     fill="none"
     stroke="currentColor"
     stroke-linecap="round"
     stroke-miterlimit="10"
     stroke-width="32"
     id="path1"
     style="stroke:#9ca3af;stroke-opacity:1" />
  <circle
     cx="96"
     cy="416"
     r="16"
     id="circle1"
     style="fill:#9ca3af;stroke:none;fill-opacity:1" />
</svg>
