<?xml version="1.0" encoding="utf-8"?>
<!-- Generator: Adobe Illustrator 17.0.0, SVG Export Plug-In . SVG Version: 6.00 Build 0)  -->
<!DOCTYPE svg PUBLIC "-//W3C//DTD SVG 1.1//EN" "http://www.w3.org/Graphics/SVG/1.1/DTD/svg11.dtd">
<svg version="1.1"
	 id="svg2" xmlns:inkscape="http://www.inkscape.org/namespaces/inkscape" xmlns:sodipodi="http://sodipodi.sourceforge.net/DTD/sodipodi-0.dtd" xmlns:svg="http://www.w3.org/2000/svg" inkscape:version="1.4.3 (0d15f75, 2025-12-25)" sodipodi:docname="archive.svg"
	 xmlns="http://www.w3.org/2000/svg" xmlns:xlink="http://www.w3.org/1999/xlink" x="0px" y="0px" width="24px" height="24px"
	 viewBox="0 0 24 24" enable-background="new 0 0 24 24" xml:space="preserve">
<sodipodi:namedview  inkscape:cy="12" inkscape:cx="11.98513" inkscape:zoom="33.625" borderopacity="0.25" bordercolor="#000000" pagecolor="#ffffff" id="namedview2" inkscape:window-x="-8" inkscape:window-height="1009" inkscape:deskcolor="#d1d1d1" inkscape:pagecheckerboard="0" inkscape:pageopacity="0.0" inkscape:window-width="1920" inkscape:showpageshadow="2" inkscape:window-maximized="1" inkscape:window-y="-8" inkscape:current-layer="svg2">
	</sodipodi:namedview>
<g id="g2">
	<path id="path1" fill="#9CA3AF" d="M21.8,6.4l-2.7-3.6C18.72,2.3,18.13,2,17.5,2h-11C5.87,2,5.27,2.3,4.9,2.8L2.2,6.4h0.01
		C2.08,6.58,2,6.77,2,7v13c0,1.1,0.9,2,2,2h16c1.1,0,2-0.9,2-2V7c0-0.23-0.09-0.42-0.21-0.59h0.01L21.8,6.4z M6.5,4h11L19,6H5L6.5,4
		z M4,20V8h16v12H4z"/>
	<path id="path2" fill="#9CA3AF" d="M13,10h-2v4H8l4,4l4-4h-3V10z"/>
</g>
</svg>
