<?xml version="1.0" encoding="utf-8"?>
<!-- Generator: Adobe Illustrator 17.0.0, SVG Export Plug-In . SVG Version: 6.00 Build 0)  -->
<!DOCTYPE svg PUBLIC "-//W3C//DTD SVG 1.1//EN" "http://www.w3.org/Graphics/SVG/1.1/DTD/svg11.dtd">
<svg version="1.1"
	 id="svg1" xmlns:inkscape="http://www.inkscape.org/namespaces/inkscape" xmlns:sodipodi="http://sodipodi.sourceforge.net/DTD/sodipodi-0.dtd" xmlns:svg="http://www.w3.org/2000/svg" inkscape:version="1.4.3 (0d15f75, 2025-12-25)" sodipodi:docname="Merge.svg"
	 xmlns="http://www.w3.org/2000/svg" xmlns:xlink="http://www.w3.org/1999/xlink" x="0px" y="0px" width="595.28px" height="531px"
	 viewBox="0 153.445 595.28 531" enable-background="new 0 153.445 595.28 531" xml:space="preserve">
<sodipodi:namedview  inkscape:cy="256" inkscape:cx="288.03965" inkscape:zoom="1.5761719" borderopacity="0.25" bordercolor="#000000" pagecolor="#ffffff" id="namedview1" inkscape:window-x="-8" inkscape:window-height="1009" inkscape:deskcolor="#d1d1d1" inkscape:pagecheckerboard="0" inkscape:pageopacity="0.0" inkscape:window-width="1920" inkscape:showpageshadow="2" inkscape:window-maximized="1" inkscape:window-y="-8" inkscape:current-layer="svg1">
	</sodipodi:namedview>
<path id="path1" fill="#9CA3AF" d="M109.135,295.275c34.703,0,62.835-28.132,62.835-62.835s-28.132-62.835-62.835-62.835
	S46.3,197.737,46.3,232.44S74.432,295.275,109.135,295.275z M109.135,468.15c-0.028-11.865,4.813-23.222,13.392-31.418
	l70.817-66.841c1.62-1.522,3.701-2.268,5.508-3.505c-9.455-23.935-32.565-39.67-58.299-39.694H77.717
	c-34.703,0-62.835,28.132-62.835,62.835v94.253c0,17.351,14.066,31.418,31.418,31.418v125.67c0,17.351,14.066,31.418,31.418,31.418
	h62.835c17.351,0,31.418-14.066,31.418-31.418v-94.636l-49.443-46.665C113.944,491.374,109.103,480.015,109.135,468.15
	L109.135,468.15z M486.145,295.275c34.703,0,62.835-28.132,62.835-62.835s-28.132-62.835-62.835-62.835
	c-34.703,0-62.835,28.132-62.835,62.835S451.443,295.275,486.145,295.275z M517.563,326.692h-62.835
	c-25.732,0.023-48.842,15.754-58.299,39.684c1.807,1.247,3.927,1.964,5.518,3.525l70.807,66.821
	c17.351,16.666,17.907,44.243,1.241,61.594c-0.405,0.422-0.819,0.836-1.241,1.241l-49.443,46.684v94.626
	c0,17.351,14.066,31.418,31.418,31.418h62.835c17.351,0,31.418-14.066,31.418-31.418v-125.67c17.351,0,31.418-14.066,31.418-31.418
	v-94.253C580.398,354.825,552.266,326.692,517.563,326.692z M451.193,459.569l-70.807-66.821c-4.71-4.49-12.167-4.311-16.657,0.398
	c-2.097,2.2-3.263,5.124-3.254,8.163v35.345h-125.67v-35.345c0.024-6.507-5.231-11.801-11.738-11.825
	c-3.042-0.011-5.971,1.155-8.173,3.254l-70.807,66.831c-4.711,4.747-4.711,12.405,0,17.152l70.807,66.831
	c4.71,4.49,12.167,4.312,16.657-0.398c2.102-2.204,3.268-5.137,3.254-8.183v-35.482h125.67v35.482
	c-0.029,6.507,5.221,11.805,11.728,11.835c3.046,0.014,5.978-1.152,8.183-3.254l70.807-66.831
	C455.904,471.974,455.904,464.316,451.193,459.569z"/>
</svg>
