<?xml version="1.0" encoding="utf-8"?>
<!-- Generator: Adobe Illustrator 17.0.0, SVG Export Plug-In . SVG Version: 6.00 Build 0)  -->
<!DOCTYPE svg PUBLIC "-//W3C//DTD SVG 1.1//EN" "http://www.w3.org/Graphics/SVG/1.1/DTD/svg11.dtd">
<svg version="1.1"
	 id="svg2" xmlns:svg="http://www.w3.org/2000/svg" xmlns:sodipodi="http://sodipodi.sourceforge.net/DTD/sodipodi-0.dtd" xmlns:inkscape="http://www.inkscape.org/namespaces/inkscape" sodipodi:docname="Contact.svg" inkscape:version="1.4.3 (0d15f75, 2025-12-25)"
	 xmlns="http://www.w3.org/2000/svg" xmlns:xlink="http://www.w3.org/1999/xlink" x="0px" y="0px" width="24px" height="24px"
	 viewBox="0 0 24 24" enable-background="new 0 0 24 24" xml:space="preserve">
<sodipodi:namedview  id="namedview2" pagecolor="#ffffff" bordercolor="#000000" borderopacity="0.25" inkscape:zoom="33.625" inkscape:cx="11.98513" inkscape:cy="12" inkscape:window-maximized="1" inkscape:window-y="-8" inkscape:window-width="1920" inkscape:deskcolor="#d1d1d1" inkscape:current-layer="svg2" inkscape:pagecheckerboard="0" inkscape:window-x="-8" inkscape:pageopacity="0.0" inkscape:showpageshadow="2" inkscape:window-height="1009">
	</sodipodi:namedview>
<g id="g2">
	<path id="path1" fill="#9CA3AF" d="M19,2H5C4.45,2,4,2.45,4,3v4H2v2h2v2H2v2h2v2H2v2h2v4c0,0.55,0.45,1,1,1h14c1.1,0,2-0.9,2-2V4
		C21,2.9,20.1,2,19,2 M19,20H6V4h13V20z"/>
	<path id="path2" fill="#9CA3AF" d="M12.5,7C11.119,7,10,8.119,10,9.5s1.119,2.5,2.5,2.5S15,10.881,15,9.5S13.881,7,12.5,7 M17,16
		c0-1.66-1.34-3-3-3h-3c-1.66,0-3,1.34-3,3v1h9V16z"/>
</g>
</svg>
