<?xml version="1.0" encoding="UTF-8" standalone="no"?>
<svg
   viewBox="0 0 24 24"
   width="24"
   height="24"
   fill="currentColor"
   version="1.1"
   id="svg2"
   sodipodi:docname="Activity.svg"
   inkscape:version="1.4.3 (0d15f75, 2025-12-25)"
   xmlns:inkscape="http://www.inkscape.org/namespaces/inkscape"
   xmlns:sodipodi="http://sodipodi.sourceforge.net/DTD/sodipodi-0.dtd"
   xmlns="http://www.w3.org/2000/svg"
   xmlns:svg="http://www.w3.org/2000/svg">
  <defs
     id="defs2" />
  <sodipodi:namedview
     id="namedview2"
     pagecolor="#ffffff"
     bordercolor="#000000"
     borderopacity="0.25"
     inkscape:showpageshadow="2"
     inkscape:pageopacity="0.0"
     inkscape:pagecheckerboard="0"
     inkscape:deskcolor="#d1d1d1"
     inkscape:zoom="33.625"
     inkscape:cx="11.98513"
     inkscape:cy="12"
     inkscape:window-width="1920"
     inkscape:window-height="1009"
     inkscape:window-x="-8"
     inkscape:window-y="-8"
     inkscape:window-maximized="1"
     inkscape:current-layer="svg2" />
  <g
     fill="currentColor"
     id="g2">
    <!--Boxicons v3.0.8 https://boxicons.com | License  https://docs.boxicons.com/free-->
    <path
       d="M20 3H4c-1.1 0-2 .9-2 2v14c0 1.1.9 2 2 2h16c1.1 0 2-.9 2-2V5c0-1.1-.9-2-2-2M4 5h16v2H4zm0 14V9h16v10z"
       id="path1" />
    <path
       d="m14.11 13.55-.61 1.21-2.11-4.21c-.34-.68-1.45-.68-1.79 0L8.38 13H6v2h3c.38 0 .73-.21.89-.55l.61-1.21 2.11 4.21c.17.34.52.55.89.55s.73-.21.89-.55L15.61 15h2.38v-2h-3c-.38 0-.73.21-.89.55Z"
       id="path2" />
  </g>
</svg>
