<?xml version="1.0" encoding="utf-8"?>
<!-- Generator: Adobe Illustrator 17.0.0, SVG Export Plug-In . SVG Version: 6.00 Build 0)  -->
<!DOCTYPE svg PUBLIC "-//W3C//DTD SVG 1.1//EN" "http://www.w3.org/Graphics/SVG/1.1/DTD/svg11.dtd">
<svg version="1.1"
	 id="svg2793" xmlns:cc="http://creativecommons.org/ns#" xmlns:dc="http://purl.org/dc/elements/1.1/" xmlns:rdf="http://www.w3.org/1999/02/22-rdf-syntax-ns#" xmlns:serif="http://www.serif.com/" xmlns:svg="http://www.w3.org/2000/svg"
	 xmlns="http://www.w3.org/2000/svg" xmlns:xlink="http://www.w3.org/1999/xlink" x="0px" y="0px" width="800px" height="800px"
	 viewBox="0 0 800 800" enable-background="new 0 0 800 800" xml:space="preserve">
<g id="_03-Profit" transform="translate(-2048,7.53847e-4)">
	<g id="g2756" transform="translate(2132.93,29.6336)">
		<path id="path2754" fill="#2DD4BF" d="M198.801,295.181c1.234,0,2.49-0.23,3.706-0.714l160.073-63.782l-7.318,17.017
			c-2.186,5.083,0.163,10.977,5.247,13.163c1.29,0.554,2.632,0.818,3.954,0.818c3.882,0,7.578-2.271,9.209-6.064l16.873-39.236
			c0.013-0.031,0.021-0.061,0.033-0.092c0.115-0.274,0.22-0.551,0.31-0.834c0.049-0.151,0.082-0.304,0.123-0.456
			c0.043-0.164,0.093-0.325,0.128-0.491c0.037-0.174,0.06-0.348,0.088-0.522c0.023-0.148,0.052-0.296,0.069-0.446
			c0.019-0.172,0.026-0.344,0.036-0.516c0.009-0.156,0.024-0.309,0.025-0.465c0.002-0.164-0.008-0.326-0.013-0.489
			c-0.006-0.164-0.008-0.329-0.021-0.494c-0.014-0.16-0.04-0.317-0.061-0.475c-0.022-0.166-0.039-0.331-0.071-0.497
			c-0.032-0.178-0.079-0.354-0.122-0.53c-0.034-0.142-0.061-0.284-0.102-0.425c-0.091-0.317-0.196-0.629-0.319-0.935v-0.001
			c-0.122-0.307-0.261-0.607-0.412-0.9c-0.069-0.134-0.15-0.258-0.224-0.388c-0.088-0.153-0.172-0.309-0.269-0.458
			c-0.094-0.146-0.199-0.283-0.301-0.423c-0.09-0.124-0.175-0.251-0.271-0.372c-0.108-0.134-0.224-0.26-0.338-0.389
			c-0.104-0.116-0.203-0.236-0.312-0.348c-0.114-0.118-0.236-0.225-0.357-0.337c-0.12-0.112-0.236-0.226-0.363-0.333
			c-0.124-0.105-0.254-0.198-0.383-0.297c-0.131-0.1-0.258-0.204-0.395-0.299c-0.154-0.106-0.315-0.198-0.474-0.295
			c-0.12-0.073-0.235-0.152-0.359-0.22c-0.29-0.16-0.588-0.307-0.892-0.438l-39.234-16.872c-5.081-2.186-10.977,0.163-13.163,5.246
			s0.163,10.977,5.246,13.163l17.012,7.316l-160.068,63.78c-5.14,2.048-7.647,7.876-5.599,13.017
			C191.054,292.791,194.82,295.181,198.801,295.181"/>
	</g>
	<g id="g2760" transform="translate(2078,242.827)">
		<path id="path2758" fill="#2DD4BF" d="M217.039,183.495c0-6.563,5.34-11.903,11.903-11.903s11.903,5.339,11.903,11.903v68.474
			h-23.806V183.495z M309.746,141.341c0-3.186,1.236-6.174,3.49-8.425c2.24-2.243,5.228-3.479,8.413-3.479
			c3.182,0,6.167,1.236,8.418,3.491c2.248,2.244,3.485,5.232,3.485,8.413V251.97h-23.806L309.746,141.341z M402.447,106.018
			c0-6.563,5.34-11.904,11.903-11.904s11.903,5.34,11.903,11.904V251.97h-23.806V106.018z M495.155,56.802
			c0-6.563,5.34-11.903,11.903-11.903s11.903,5.339,11.903,11.903V251.97h-23.806V56.802z M507.058,24.86
			c-17.613,0-31.942,14.329-31.942,31.942V251.97h-28.823V106.018c0-17.613-14.329-31.943-31.942-31.943
			s-31.942,14.33-31.942,31.943V251.97h-28.816V141.341c0-8.541-3.326-16.565-9.355-22.583c-6.025-6.036-14.047-9.36-22.587-9.36
			c-8.545,0-16.569,3.324-22.583,9.348c-6.036,6.026-9.36,14.051-9.36,22.595V251.97h-28.823v-68.474
			c0-17.612-14.329-31.942-31.942-31.942S197,165.883,197,183.495v78.494c0,5.533,4.486,10.02,10.02,10.02h321.96
			c5.533,0,10.02-4.486,10.02-10.02V56.802C539,39.189,524.671,24.86,507.058,24.86"/>
	</g>
</g>
<g id="_09-Round-Chart" transform="translate(-3072,-1024)">
	<g id="g2606" transform="translate(3282.77,1327.86)">
		<path id="path2604" fill="#2DD4BF" d="M51.911,438.916c-105.316-21.131-187.637-103.447-208.77-208.759h107.157
			c8.043,23.434,21.39,44.844,39.08,62.534c17.688,17.689,39.098,31.036,62.532,39.078v107.147H51.911z M73.751,301.603
			C27.714,290.1-8.031,254.355-19.535,208.318c-1.956-7.826-8.987-13.317-17.054-13.317h-140.918c-5.039,0-9.837,2.163-13.174,5.943
			c-3.336,3.776-4.891,8.804-4.269,13.806c8.229,66.146,38.85,128.664,86.224,176.036c47.374,47.374,109.895,77.993,176.045,86.222
			c0.725,0.091,1.45,0.135,2.171,0.135c4.261,0,8.406-1.549,11.637-4.404c3.777-3.336,5.94-8.134,5.94-13.174V318.657
			C87.067,310.591,81.575,303.56,73.751,301.603"/>
	</g>
	<g id="g2610" transform="translate(3373.23,1327.86)">
		<path id="path2608" fill="#2DD4BF" d="M235.458,438.915V331.766c23.433-8.047,44.845-21.396,62.534-39.086
			c17.688-17.688,31.036-39.095,39.079-62.524h107.156C423.086,335.469,340.767,417.783,235.458,438.915 M464.878,194.999H323.96
			c-8.067,0-15.097,5.491-17.054,13.317c-11.504,46.025-47.251,81.772-93.291,93.287c-7.823,1.957-13.313,8.987-13.313,17.052
			v140.906c0,5.04,2.163,9.838,5.94,13.174c3.231,2.855,7.376,4.404,11.637,4.404c0.722,0,1.446-0.045,2.171-0.135
			c66.145-8.229,128.664-38.848,176.037-86.222c47.374-47.372,77.999-109.889,86.232-176.033c0.623-5.003-0.932-10.031-4.268-13.808
			C474.715,197.163,469.917,194.999,464.878,194.999"/>
	</g>
	<g id="g2614" transform="translate(3282.77,1140.29)">
		<path id="path2612" fill="#2DD4BF" d="M51.911,48.094C28.471,56.14,7.059,69.49-10.631,87.181
			c-17.688,17.687-31.034,39.095-39.071,62.523h-107.156C-135.728,44.398-53.407-37.922,51.911-59.063V48.094z M81.125-92.888
			c-3.778-3.336-8.798-4.89-13.809-4.268C1.171-88.923-61.348-58.298-108.722-10.925C-156.1,36.45-186.723,98.967-194.951,165.112
			c-0.622,5.003,0.933,10.03,4.269,13.808c3.338,3.777,8.135,5.94,13.174,5.94H-36.59c8.068,0,15.1-5.491,17.054-13.318
			c11.494-46.027,47.239-81.77,93.288-93.285c7.825-1.956,13.314-8.987,13.314-17.052V-79.714
			C87.067-84.753,84.902-89.552,81.125-92.888"/>
	</g>
	<g id="g2618" transform="translate(3373.23,1231.74)">
		<path id="path2616" fill="#2DD4BF" d="M235.458-150.514C340.777-129.373,423.097-47.055,444.229,58.253H337.072
			c-8.043-23.433-21.39-44.842-39.08-62.532c-17.688-17.689-39.1-31.036-62.534-39.08L235.458-150.514L235.458-150.514z
			 M213.618-13.191c46.038,11.503,81.783,47.248,93.287,93.285c1.956,7.826,8.987,13.316,17.054,13.316h140.918
			c5.039,0,9.837-2.162,13.174-5.94c3.336-3.778,4.891-8.805,4.269-13.807c-8.228-66.144-38.85-128.664-86.224-176.038
			c-47.373-47.373-109.894-77.996-176.045-86.231c-4.99-0.618-10.03,0.932-13.808,4.269c-3.777,3.335-5.941,8.134-5.941,13.174
			v140.918C200.302-22.179,205.794-15.147,213.618-13.191"/>
	</g>
</g>
</svg>
