<?xml version="1.0" encoding="utf-8"?>
<!-- Generator: Adobe Illustrator 17.0.0, SVG Export Plug-In . SVG Version: 6.00 Build 0)  -->
<!DOCTYPE svg PUBLIC "-//W3C//DTD SVG 1.1//EN" "http://www.w3.org/Graphics/SVG/1.1/DTD/svg11.dtd">
<svg version="1.1" id="injected-svg" transform="" xmlns="http://www.w3.org/2000/svg" xmlns:xlink="http://www.w3.org/1999/xlink"
	 x="0px" y="0px" width="24px" height="24px" viewBox="0 0 24 24" enable-background="new 0 0 24 24" xml:space="preserve">
<path fill="#DC2626" d="M17,6V4c0-1.1-0.9-2-2-2H9C7.9,2,7,2.9,7,4v2H2v2h2v12c0,1.1,0.9,2,2,2h12c1.1,0,2-0.9,2-2V8h2V6H17z M9,4h6
	v2H9V4z M18,20H6V8h12V20z"/>
<path fill="#DC2626" d="M14.29,10.29L12,12.59l-2.29-2.3l-1.42,1.42l2.3,2.29l-2.3,2.29l1.42,1.42l2.29-2.3l2.29,2.3l1.42-1.42
	L13.41,14l2.3-2.29L14.29,10.29z"/>
</svg>
