<?xml version="1.0" encoding="UTF-8" standalone="no"?>
<svg
   class="ionicon"
   viewBox="0 0 512 512"
   version="1.1"
   id="svg2"
   sodipodi:docname="Lead.svg"
   inkscape:version="1.4.3 (0d15f75, 2025-12-25)"
   xmlns:inkscape="http://www.inkscape.org/namespaces/inkscape"
   xmlns:sodipodi="http://sodipodi.sourceforge.net/DTD/sodipodi-0.dtd"
   xmlns="http://www.w3.org/2000/svg"
   xmlns:svg="http://www.w3.org/2000/svg">
  <defs
     id="defs2" />
  <sodipodi:namedview
     id="namedview2"
     pagecolor="#ffffff"
     bordercolor="#000000"
     borderopacity="0.25"
     inkscape:showpageshadow="2"
     inkscape:pageopacity="0.0"
     inkscape:pagecheckerboard="0"
     inkscape:deskcolor="#d1d1d1"
     inkscape:zoom="1.3671875"
     inkscape:cx="-10.971429"
     inkscape:cy="368.27429"
     inkscape:window-width="1920"
     inkscape:window-height="1009"
     inkscape:window-x="-8"
     inkscape:window-y="-8"
     inkscape:window-maximized="1"
     inkscape:current-layer="svg2" />
  <path
     d="M448 256c0-106-86-192-192-192S64 150 64 256s86 192 192 192 192-86 192-192z"
     fill="none"
     stroke="currentColor"
     stroke-miterlimit="10"
     stroke-width="32"
     id="path1"
     style="stroke:#f3f4f6;stroke-opacity:1;stroke-width:3;stroke-dasharray:none" />
  <path
     d="M350.67 150.93l-117.2 46.88a64 64 0 00-35.66 35.66l-46.88 117.2a8 8 0 0010.4 10.4l117.2-46.88a64 64 0 0035.66-35.66l46.88-117.2a8 8 0 00-10.4-10.4zM256 280a24 24 0 1124-24 24 24 0 01-24 24z"
     id="path2"
     style="fill:#f3f4f6;fill-opacity:1;stroke-width:1;stroke-dasharray:none" />
</svg>
