<?xml version="1.0" encoding="utf-8"?>
<!-- Generator: Adobe Illustrator 17.0.0, SVG Export Plug-In . SVG Version: 6.00 Build 0)  -->
<!DOCTYPE svg PUBLIC "-//W3C//DTD SVG 1.1//EN" "http://www.w3.org/Graphics/SVG/1.1/DTD/svg11.dtd">
<svg version="1.1" id="injected-svg" transform="" xmlns="http://www.w3.org/2000/svg" xmlns:xlink="http://www.w3.org/1999/xlink"
	 x="0px" y="0px" width="24px" height="24px" viewBox="0 0 24 24" enable-background="new 0 0 24 24" xml:space="preserve">
<path fill="#9CA3AF" d="M19.67,2.61c-0.81-0.81-2.14-0.81-2.95,0L3.38,15.95c-0.13,0.13-0.22,0.29-0.26,0.46l-1.09,4.34
	c-0.08,0.34,0.01,0.7,0.26,0.95c0.19,0.19,0.45,0.29,0.71,0.29c0.08,0,0.16,0,0.24-0.03l4.34-1.09c0.18-0.04,0.34-0.13,0.46-0.26
	L21.38,7.27c0.81-0.81,0.81-2.14,0-2.95L19.66,2.6L19.67,2.61z M6.83,19.01l-2.46,0.61l0.61-2.46l9.96-9.94l1.84,1.84L6.83,19.01z
	 M19.98,5.86L18.2,7.64L16.36,5.8l1.78-1.78c0,0,0.09-0.03,0.12,0l1.72,1.72C19.98,5.74,20.01,5.83,19.98,5.86"/>
</svg>
