<?xml version="1.0" encoding="utf-8"?>
<!-- Generator: Adobe Illustrator 17.0.0, SVG Export Plug-In . SVG Version: 6.00 Build 0)  -->
<!DOCTYPE svg PUBLIC "-//W3C//DTD SVG 1.1//EN" "http://www.w3.org/Graphics/SVG/1.1/DTD/svg11.dtd">
<svg version="1.1"
	 id="svg2793" xmlns:cc="http://creativecommons.org/ns#" xmlns:dc="http://purl.org/dc/elements/1.1/" xmlns:rdf="http://www.w3.org/1999/02/22-rdf-syntax-ns#" xmlns:serif="http://www.serif.com/" xmlns:svg="http://www.w3.org/2000/svg"
	 xmlns="http://www.w3.org/2000/svg" xmlns:xlink="http://www.w3.org/1999/xlink" x="0px" y="0px" width="800px" height="800px"
	 viewBox="0 0 800 800" enable-background="new 0 0 800 800" xml:space="preserve">
<g id="_08-Timeline" transform="translate(-2048,-1024)">
	<g id="g2623" transform="translate(2304,1327.51)">
		<path id="path2621" fill="#2DD4BF" d="M73.477,96.491c0,17.073-13.889,30.964-30.964,30.964
			c-17.081,0-30.979-13.891-30.979-30.964c0-17.082,13.898-30.979,30.979-30.979C59.588,65.512,73.477,79.409,73.477,96.491
			 M276.48,96.491c0,17.073-13.898,30.964-30.979,30.964s-30.979-13.891-30.979-30.964c0-17.082,13.898-30.979,30.979-30.979
			S276.48,79.409,276.48,96.491 M479.469,96.491c0,17.073-13.891,30.964-30.964,30.964c-17.081,0-30.98-13.891-30.98-30.964
			c0-17.082,13.9-30.979,30.98-30.979C465.578,65.512,479.469,79.409,479.469,96.491 M-191.469,96.491
			c0-17.082,13.897-30.979,30.979-30.979s30.979,13.897,30.979,30.979c0,17.073-13.897,30.964-30.979,30.964
			S-191.469,113.565-191.469,96.491 M-160.49,20.981c-41.637,0-75.51,33.873-75.51,75.51c0,41.628,33.873,75.495,75.51,75.495
			c33.887,0,62.629-22.435,72.155-53.23h58.692c9.525,30.795,38.269,53.23,72.155,53.23c33.881,0,62.617-22.435,72.141-53.23h58.692
			c9.525,30.795,38.269,53.23,72.155,53.23s62.629-22.435,72.155-53.23h58.692c9.525,30.795,38.267,53.23,72.155,53.23
			c41.628,0,75.495-33.868,75.495-75.495c0-41.637-33.868-75.51-75.495-75.51c-33.89,0-62.633,22.442-72.157,53.245h-58.691
			c-9.524-30.802-38.266-53.245-72.155-53.245s-62.633,22.442-72.157,53.245h-58.689c-9.522-30.802-38.26-53.245-72.142-53.245
			c-33.89,0-62.633,22.442-72.157,53.245h-58.691C-97.858,43.424-126.6,20.981-160.49,20.981"/>
	</g>
	<g id="g2627" transform="translate(2188.22,1064.27)">
		<path id="path2625" fill="#2DD4BF" d="M-28.967,531.592c4.21,4.21,6.527,9.804,6.527,15.755V664.88
			c0,5.949-2.311,11.534-6.539,15.754c-4.192,4.199-9.779,6.512-15.727,6.512c-5.946,0-11.534-2.313-15.752-6.539
			c-4.201-4.193-6.513-9.778-6.513-15.727V547.348c0-5.951,2.319-11.545,6.525-15.754c4.14-4.138,9.877-6.512,15.74-6.512
			C-38.841,525.082-33.103,527.455-28.967,531.592 M-111.502,547.348V664.88c0,17.859,6.954,34.635,19.557,47.215
			c12.605,12.628,29.383,19.582,47.24,19.582c17.859,0,34.635-6.954,47.215-19.555c12.629-12.607,19.582-29.383,19.582-47.242
			V547.348c0-17.844-6.948-34.622-19.57-47.243c-12.608-12.61-29.382-19.554-47.227-19.554c-17.844,0-34.617,6.944-47.228,19.555
			C-104.552,512.726-111.502,529.504-111.502,547.348"/>
	</g>
	<g id="g2631" transform="translate(2188.22,1337.78)">
		<path id="path2629" fill="#2DD4BF" d="M377.028,258.082c4.208,4.208,6.525,9.804,6.525,15.755V391.37
			c0,5.949-2.311,11.534-6.539,15.754c-4.192,4.199-9.778,6.512-15.727,6.512c-5.946,0-11.534-2.313-15.752-6.539
			c-4.201-4.193-6.513-9.778-6.513-15.727V273.838c0-5.951,2.319-11.545,6.525-15.754c4.14-4.138,9.877-6.512,15.74-6.512
			C367.238,251.572,372.83,253.885,377.028,258.082 M294.491,273.838V391.37c0,17.858,6.954,34.635,19.557,47.215
			c12.605,12.628,29.383,19.582,47.24,19.582c17.859,0,34.635-6.954,47.215-19.555c12.629-12.605,19.582-29.383,19.582-47.242
			V273.837c0-17.845-6.948-34.622-19.569-47.243c-12.61-12.61-29.382-19.554-47.228-19.554c-17.844,0-34.617,6.944-47.228,19.555
			C301.441,239.216,294.491,255.994,294.491,273.838"/>
	</g>
	<g id="g2635" transform="translate(2419.77,1222.23)">
		<path id="path2633" fill="#2DD4BF" d="M-89.003,29.925c-4.146-4.155-6.525-9.896-6.525-15.752v-117.549
			c0-5.951,2.313-11.54,6.512-15.739c4.208-4.208,9.804-6.527,15.754-6.527c5.942,0,11.532,2.319,15.74,6.527
			c4.147,4.147,6.525,9.884,6.525,15.739V14.173c0,5.847-2.384,11.589-6.51,15.724c-4.165,4.156-9.907,6.542-15.755,6.542
			C-79.205,36.439-84.805,34.116-89.003,29.925 M-6.466,14.173v-117.549c0-17.835-6.948-34.607-19.569-47.228
			c-12.62-12.619-29.394-19.569-47.228-19.569c-17.845,0-34.623,6.95-47.242,19.57c-12.61,12.61-19.555,29.382-19.555,47.227V14.173
			c0,17.823,6.939,34.59,19.569,47.242c12.634,12.61,29.407,19.555,47.228,19.555c17.814,0,34.581-6.945,47.245-19.585
			C-13.41,48.755-6.466,31.987-6.466,14.173"/>
	</g>
	<g id="g2639" transform="translate(2520.18,1474.54)">
		<path id="path2637" fill="#2DD4BF" d="M248.071-371.431c4.146,4.147,6.525,9.884,6.525,15.74v117.548
			c0,5.847-2.384,11.59-6.512,15.725c-4.165,4.156-9.905,6.54-15.754,6.54c-5.942,0-11.544-2.323-15.74-6.512
			c-4.147-4.155-6.525-9.896-6.525-15.754V-355.69c0-5.866,2.374-11.602,6.509-15.739c4.21-4.21,9.806-6.527,15.757-6.527
			C238.271-377.956,243.861-375.639,248.071-371.431 M165.534-355.69v117.548c0,17.823,6.938,34.59,19.567,47.242
			c12.635,12.61,29.407,19.555,47.23,19.555c17.813,0,34.581-6.945,47.242-19.582c12.61-12.634,19.555-29.401,19.555-47.215V-355.69
			c0-17.836-6.95-34.61-19.569-47.228c-12.62-12.62-29.392-19.569-47.228-19.569c-17.844,0-34.622,6.948-47.245,19.569
			C172.478-390.309,165.534-373.536,165.534-355.69"/>
	</g>
	<g id="g2643" transform="translate(2207.61,1196.37)">
		<path id="path2641" fill="#2DD4BF" d="M71.72,370.71v164.691c0,12.297,9.969,22.266,22.266,22.266s22.266-9.969,22.266-22.266
			V370.71c0-12.297-9.969-22.266-22.266-22.266S71.72,358.414,71.72,370.71"/>
	</g>
	<g id="g2647" transform="translate(2207.61,1256.89)">
		<path id="path2645" fill="#2DD4BF" d="M161.555,310.19v73.61c0,12.297,9.968,22.266,22.266,22.266
			c12.295,0,22.266-9.969,22.266-22.266v-73.61c0-12.297-9.971-22.266-22.266-22.266
			C171.522,287.924,161.555,297.894,161.555,310.19"/>
	</g>
	<g id="g2651" transform="translate(2400.38,1303.12)">
		<path id="path2649" fill="#2DD4BF" d="M126.47-22.182v-164.706c0-12.297-9.969-22.266-22.266-22.266s-22.266,9.969-22.266,22.266
			v164.706c0,12.297,9.969,22.266,22.266,22.266S126.47-9.886,126.47-22.182"/>
	</g>
	<g id="g2655" transform="translate(2400.38,1363.64)">
		<path id="path2653" fill="#2DD4BF" d="M216.305-82.702v-73.626c0-12.297-9.971-22.266-22.266-22.266
			c-12.298,0-22.266,9.969-22.266,22.266v73.626c0,12.297,9.968,22.266,22.266,22.266C206.334-60.437,216.305-70.406,216.305-82.702
			"/>
	</g>
</g>
</svg>
