<?xml version="1.0" encoding="UTF-8" standalone="no"?>
<svg
   viewBox="0 0 24 24"
   width="24"
   height="24"
   fill="currentColor"
   version="1.1"
   id="svg2"
   sodipodi:docname="User.svg"
   inkscape:version="1.4.3 (0d15f75, 2025-12-25)"
   xmlns:inkscape="http://www.inkscape.org/namespaces/inkscape"
   xmlns:sodipodi="http://sodipodi.sourceforge.net/DTD/sodipodi-0.dtd"
   xmlns="http://www.w3.org/2000/svg"
   xmlns:svg="http://www.w3.org/2000/svg">
  <defs
     id="defs2" />
  <sodipodi:namedview
     id="namedview2"
     pagecolor="#ffffff"
     bordercolor="#000000"
     borderopacity="0.25"
     inkscape:showpageshadow="2"
     inkscape:pageopacity="0.0"
     inkscape:pagecheckerboard="0"
     inkscape:deskcolor="#d1d1d1"
     inkscape:zoom="33.625"
     inkscape:cx="11.98513"
     inkscape:cy="12"
     inkscape:window-width="1920"
     inkscape:window-height="1009"
     inkscape:window-x="-8"
     inkscape:window-y="-8"
     inkscape:window-maximized="1"
     inkscape:current-layer="svg2" />
  <g
     fill="currentColor"
     id="g2">
    <!--Boxicons v3.0.8 https://boxicons.com | License  https://docs.boxicons.com/free-->
    <path
       d="M12 6c-2.28 0-4 1.72-4 4s1.72 4 4 4 4-1.72 4-4-1.72-4-4-4m0 6c-1.18 0-2-.82-2-2s.82-2 2-2 2 .82 2 2-.82 2-2 2"
       id="path1" />
    <path
       d="M12 2C6.49 2 2 6.49 2 12c0 3.26 1.58 6.16 4 7.98V20h.03c1.67 1.25 3.73 2 5.97 2s4.31-.75 5.97-2H18v-.02c2.42-1.83 4-4.72 4-7.98 0-5.51-4.49-10-10-10M8.18 19.02C8.59 17.85 9.69 17 11 17h2c1.31 0 2.42.85 2.82 2.02-1.14.62-2.44.98-3.82.98s-2.69-.35-3.82-.98m9.3-1.21c-.81-1.66-2.51-2.82-4.48-2.82h-2c-1.97 0-3.66 1.16-4.48 2.82A7.96 7.96 0 0 1 4 11.99c0-4.41 3.59-8 8-8s8 3.59 8 8c0 2.29-.97 4.36-2.52 5.82"
       id="path2" />
  </g>
</svg>
